<?xml version="1.0" standalone="no"?>
<!DOCTYPE svg PUBLIC "-//W3C//DTD SVG 20010904//EN"
 "http://www.w3.org/TR/2001/REC-SVG-20010904/DTD/svg10.dtd">
<svg version="1.0" xmlns="http://www.w3.org/2000/svg"
 width="1280.000000pt" height="905.000000pt" viewBox="0 0 1280.000000 905.000000"
 preserveAspectRatio="xMidYMid meet">
<g transform="translate(0.000000,905.000000) scale(0.100000,-0.100000)"
fill="#ff5722" stroke="none">
<path d="M6345 8598 c-11 -6 -114 -89 -230 -183 -115 -94 -381 -310 -590 -480
-368 -299 -449 -365 -612 -498 -43 -35 -249 -202 -458 -372 -209 -170 -423
-344 -475 -387 -52 -42 -237 -192 -410 -333 -765 -622 -768 -624 -779 -656 -6
-18 -11 -49 -11 -70 0 -43 20 -73 263 -414 l136 -190 -72 -12 c-165 -28 -293
-84 -482 -210 -135 -91 -182 -135 -219 -209 -51 -101 -72 -251 -45 -321 14
-38 48 -73 71 -73 10 0 75 46 145 103 256 206 337 264 459 326 106 53 116 54
127 11 6 -19 50 -156 99 -304 98 -297 179 -504 273 -701 34 -71 88 -186 120
-255 160 -348 512 -1036 648 -1265 l35 -60 -72 -80 c-184 -203 -313 -355 -348
-409 -122 -189 -96 -394 66 -516 60 -45 164 -95 220 -106 l39 -7 -36 -31 c-66
-58 -75 -114 -28 -187 57 -90 185 -147 352 -156 119 -7 195 12 233 58 63 74
-2 202 -142 282 l-57 32 245 27 c819 91 1178 112 1895 113 325 0 633 -4 686
-8 l96 -9 -57 -56 c-96 -97 -103 -191 -20 -285 73 -83 193 -128 348 -130 172
-3 301 44 350 128 41 70 15 169 -66 255 -46 47 -52 46 131 20 150 -21 198 -18
246 18 61 45 64 111 8 184 -39 51 -86 84 -138 98 -123 33 -581 88 -924 111
-220 14 -842 14 -1105 -1 -522 -28 -1073 -88 -1709 -186 -124 -19 -243 -34
-265 -34 -46 0 -99 28 -116 61 -15 26 -8 84 14 130 27 57 553 616 598 636 99
45 783 229 1138 307 850 185 1592 234 2162 141 86 -14 102 -14 132 -1 60 25
70 52 71 190 4 594 -71 1316 -194 1867 -42 184 -68 263 -120 366 -17 34 -31
65 -31 67 0 5 265 191 705 496 278 192 301 210 308 248 12 64 44 24 -964 1222
-379 451 -1182 1407 -1297 1545 -102 121 -100 119 -194 143 -98 25 -124 26
-153 10z m76 -456 c61 -75 489 -600 794 -972 665 -814 862 -1056 868 -1066 4
-6 -34 -40 -91 -81 -82 -59 -802 -571 -997 -709 l-61 -43 -153 -16 c-253 -26
-581 -97 -850 -184 l-123 -39 28 30 c46 47 40 80 -71 383 -97 267 -115 305
-142 305 -8 0 -69 -45 -136 -100 -67 -55 -124 -96 -128 -92 -3 4 -18 43 -34
87 -39 110 -52 135 -74 135 -11 0 -55 -30 -100 -66 -63 -51 -82 -73 -87 -98
-4 -26 21 -105 125 -393 72 -199 131 -363 131 -366 0 -9 -59 -26 -64 -18 -3 4
-18 45 -35 90 -32 89 -46 111 -66 111 -7 0 -69 -45 -136 -100 -68 -55 -126
-96 -130 -92 -4 4 -17 36 -30 71 l-23 64 29 23 29 23 19 -49 c27 -72 44 -73
125 -6 99 80 107 91 106 140 -2 60 -54 180 -79 184 -22 3 -441 -334 -462 -372
-20 -34 -16 -58 38 -206 28 -78 50 -142 48 -143 -2 -1 -144 -72 -316 -159
l-312 -156 -158 215 c-87 118 -225 306 -308 418 -82 112 -232 314 -332 450
l-181 247 277 222 c153 121 384 305 512 407 525 417 850 675 1139 905 1146
913 1333 1059 1346 1058 8 -1 11 2 8 7 -3 5 -2 9 3 8 4 0 29 -26 54 -57z
m-862 -2932 c46 -127 82 -232 80 -233 -2 -2 -17 -8 -32 -15 -26 -11 -28 -10
-38 16 -45 118 -149 406 -149 414 0 9 40 47 50 48 3 0 43 -104 89 -230z m881
-284 c0 -6 -208 -156 -215 -156 -3 0 -5 24 -5 54 l0 55 78 16 c63 14 125 29
140 34 1 1 2 -1 2 -3z m-367 -168 c-3 -46 -6 -88 -8 -95 -2 -6 -113 -89 -247
-184 -134 -95 -283 -201 -331 -236 -49 -36 -91 -62 -94 -59 -7 6 27 398 37
435 5 22 26 31 166 78 157 54 449 142 470 143 7 0 9 -27 7 -82z m1778 20 c39
-24 70 -51 73 -62 10 -42 65 -516 60 -516 -1 0 -37 16 -80 36 -44 20 -117 49
-163 64 -47 16 -88 35 -91 42 -4 7 -13 76 -19 153 -21 241 -27 210 59 272 41
29 79 53 84 53 5 0 39 -19 77 -42z m-2851 -45 c0 -16 -52 -43 -82 -43 -20 1
-18 5 22 39 43 38 59 39 60 4z m2510 -125 c0 -13 5 -72 10 -132 6 -60 9 -111
7 -113 -3 -2 -56 3 -118 11 -63 8 -143 19 -177 23 l-64 8 163 113 c89 61 166
112 171 112 4 0 8 -10 8 -22z m-2235 -50 c-4 -23 -29 -267 -41 -416 l-7 -82
-69 -51 c-38 -27 -103 -63 -146 -79 -68 -25 -295 -117 -406 -165 l-39 -16 7
78 c10 115 45 435 51 459 3 14 26 30 73 51 l69 31 22 -53 c38 -91 23 -97 280
114 195 160 216 173 206 129z m1409 -29 c26 -12 56 -63 56 -96 0 -39 -23 -53
-100 -62 -41 -5 -77 -8 -81 -5 -4 2 -13 20 -19 40 -29 86 59 161 144 123z
m-2879 -409 c-3 -6 -10 -10 -14 -10 -7 0 -61 112 -61 127 0 4 18 -19 41 -50
22 -32 37 -62 34 -67z m3619 94 c60 -7 111 -15 113 -18 3 -3 11 -105 18 -228
8 -123 17 -265 20 -317 l6 -94 -53 7 c-133 18 -215 25 -380 31 l-178 8 0 313
0 313 53 4 c81 6 281 -4 401 -19z m-2951 -16 c-2 -18 -15 -122 -26 -231 l-22
-198 -117 161 -118 160 138 70 c75 38 140 69 144 69 4 1 4 -14 1 -31z m3294
-59 c54 -17 128 -45 164 -61 l67 -30 6 -71 c9 -100 27 -529 23 -533 -2 -2 -41
9 -88 24 -46 16 -116 37 -156 46 l-72 18 -5 51 c-3 29 -13 153 -21 277 -9 124
-18 244 -21 268 -4 23 -4 42 0 42 3 0 50 -14 103 -31z m-947 -263 l0 -284 -87
-6 c-127 -10 -333 -34 -440 -51 -144 -23 -133 -30 -126 78 3 50 11 98 17 105
11 11 628 442 634 442 1 0 2 -128 2 -284z m-2751 -108 l130 -183 -59 -29 c-33
-17 -61 -28 -63 -25 -18 22 -177 395 -173 405 13 34 43 3 165 -168z m531 -153
c0 -2 -10 -9 -22 -15 -22 -11 -22 -10 -4 4 21 17 26 19 26 11z m1403 -125 c-4
-4 -48 -15 -98 -24 -49 -10 -99 -20 -110 -23 -11 -3 32 31 95 75 l115 80 3
-51 c2 -27 0 -53 -5 -57z m-1662 -106 l57 -79 -6 -152 -5 -152 -25 -6 c-14 -3
-29 -2 -33 2 -4 4 -51 99 -103 211 l-95 203 47 21 c80 34 87 37 97 34 6 -1 35
-38 66 -82z m3112 21 c65 -7 122 -16 127 -21 4 -5 11 -112 15 -239 l7 -230
-199 0 c-109 0 -253 -4 -320 -8 l-123 -8 0 84 c0 46 3 166 7 267 l6 183 181
-8 c100 -4 234 -13 299 -20z m-633 -163 c0 -99 -3 -220 -6 -270 l-7 -91 -46
-7 c-125 -17 -370 -57 -484 -80 -71 -14 -130 -24 -131 -22 -4 5 11 568 15 572
12 12 507 71 622 75 l37 1 0 -178z m1091 76 l114 -33 2 -208 2 -209 -37 7
c-20 3 -83 12 -140 19 -56 7 -104 15 -107 17 -4 5 -25 350 -25 418 0 33 0 34
38 27 21 -3 90 -20 153 -38z m-1916 -314 l-7 -272 -167 -42 c-91 -23 -235 -62
-320 -86 -85 -24 -161 -44 -168 -44 -15 0 -17 164 -5 423 7 141 9 149 32 167
32 24 279 91 550 149 l85 18 4 -21 c2 -12 0 -143 -4 -292z m-1435 75 c0 -5 -4
-9 -10 -9 -5 0 -10 7 -10 16 0 8 5 12 10 9 6 -3 10 -10 10 -16z m615 -315 l0
-255 -245 -83 c-135 -45 -252 -86 -260 -90 -13 -5 -29 21 -78 121 l-62 128 0
161 0 161 60 18 61 18 37 -36 c44 -43 106 -67 173 -67 44 0 59 7 161 76 62 42
120 82 128 90 8 8 17 14 20 14 3 0 5 -115 5 -256z m2678 -1836 c26 -11 61 -36
78 -56 51 -58 30 -120 -56 -165 -49 -25 -165 -29 -238 -8 -63 18 -117 68 -117
107 0 120 180 186 333 122z m-3333 -104 c57 -17 130 -77 130 -107 0 -9 -11
-29 -24 -44 -24 -27 -27 -28 -123 -28 -76 0 -106 4 -133 19 -82 43 -102 92
-56 135 45 42 119 51 206 25z"/>
<path d="M6261 7549 c-219 -180 -237 -199 -233 -253 2 -31 204 -580 220 -598
8 -10 21 -18 27 -18 13 0 418 327 448 362 24 28 21 74 -9 154 -30 81 -40 94
-66 94 -17 0 -18 2 -8 15 20 24 8 77 -54 245 -59 160 -69 180 -91 180 -7 0
-113 -82 -234 -181z m115 -217 l29 -84 -24 -19 c-13 -10 -26 -19 -30 -19 -4 0
-23 44 -43 98 l-35 97 25 28 26 27 12 -22 c6 -13 24 -60 40 -106z m97 -207
c-3 -19 0 -55 7 -80 11 -41 11 -48 -5 -65 -29 -32 -39 -24 -64 43 l-22 62 43
37 c24 21 44 38 45 38 1 0 -1 -16 -4 -35z"/>
<path d="M5855 7210 c-11 -4 -99 -73 -196 -153 -122 -101 -180 -155 -190 -179
-29 -69 -19 -118 79 -387 51 -140 97 -263 103 -273 16 -30 45 -21 111 35 114
96 114 134 6 432 l-81 226 26 27 c14 14 28 24 30 21 2 -2 39 -103 83 -224 106
-296 130 -319 241 -233 65 50 83 74 83 110 0 16 -38 133 -84 261 -114 316
-114 315 -147 332 -31 17 -36 17 -64 5z"/>
<path d="M5137 6951 c-84 -68 -92 -77 -100 -109 -7 -31 20 -116 44 -138 18
-16 21 -15 56 9 76 53 141 117 148 145 11 50 -34 152 -66 152 -4 0 -41 -27
-82 -59z"/>
<path d="M5238 6709 c-92 -75 -108 -95 -108 -135 0 -36 188 -570 215 -611 9
-13 22 -23 29 -23 14 0 150 108 174 138 8 11 12 32 9 57 -5 42 -201 590 -219
612 -18 22 -34 15 -100 -38z"/>
<path d="M4815 6689 c-84 -67 -95 -83 -95 -130 0 -32 280 -816 306 -856 8 -13
21 -23 28 -23 14 0 139 98 169 132 9 11 17 34 17 52 0 41 -296 857 -317 874
-9 6 -20 12 -24 12 -4 0 -42 -27 -84 -61z"/>
<path d="M6560 6545 c-114 -95 -182 -157 -195 -182 -38 -74 -31 -106 114 -503
156 -428 157 -430 184 -430 21 0 148 98 173 134 21 31 17 66 -21 172 l-35 97
37 31 c183 150 203 176 203 264 0 61 -156 501 -191 538 -16 17 -33 24 -58 24
-31 -1 -59 -20 -211 -145z m150 -312 c41 -113 76 -212 78 -219 2 -6 -10 -21
-26 -33 l-29 -20 -78 215 -78 215 23 24 c13 14 26 25 29 25 3 0 40 -93 81
-207z"/>
<path d="M4635 6211 c-66 -41 -351 -288 -365 -316 -33 -66 -21 -122 78 -395
89 -243 111 -290 136 -290 6 0 39 23 73 51 74 60 99 112 90 187 -3 26 -41 145
-85 265 l-80 217 30 21 c16 12 30 20 32 18 1 -2 38 -103 82 -224 106 -297 127
-317 240 -229 63 48 83 75 84 112 0 23 -169 502 -196 554 -26 50 -69 60 -119
29z"/>
<path d="M6088 6153 c-251 -201 -287 -234 -304 -279 -12 -30 -15 -59 -11 -92
6 -50 156 -469 182 -509 22 -32 63 -47 93 -34 31 15 334 264 366 301 27 33 42
101 32 153 -7 37 -155 449 -175 485 -6 12 -20 26 -31 32 -40 21 -69 11 -152
-57z m54 -406 l78 -212 -27 -22 c-15 -12 -30 -20 -33 -17 -3 3 -39 99 -81 214
l-76 209 26 25 c13 14 27 23 30 20 4 -3 41 -101 83 -217z"/>
<path d="M3988 5683 c-251 -201 -287 -234 -304 -279 -25 -67 -15 -117 75 -364
64 -179 87 -231 111 -252 51 -47 56 -45 240 105 197 160 217 181 230 239 7 27
10 64 6 81 -14 75 -172 490 -195 513 -40 40 -71 32 -163 -43z m51 -403 l79
-215 -26 -22 c-15 -13 -29 -23 -32 -23 -3 0 -39 96 -82 213 l-76 212 26 27
c14 15 27 26 28 25 2 -2 39 -100 83 -217z"/>
<path d="M7670 893 c-28 -10 -60 -47 -60 -68 0 -28 34 -71 70 -90 58 -30 147
-14 176 30 20 31 -13 96 -59 118 -34 16 -96 21 -127 10z"/>
<path d="M4379 781 c-21 -17 -22 -21 -9 -50 31 -76 200 -100 200 -28 0 74
-130 127 -191 78z"/>
</g>
</svg>
